<svg version="1" xmlns="http://www.w3.org/2000/svg" width="933.333" height="933.333" viewBox="0 0 700.000000 700.000000"><path d="M115 120.7c-8.4.9-23.5 4.5-30.8 7.3-20.3 7.8-35.4 22.8-43 42.7-4.8 12.5-5.6 18.1-5.7 38.3 0 16.1.5 22.1 3.9 46 3.2 23.5 3.7 29.5 3.4 41.1-.3 12.8-.5 14-3.3 19.5-3.6 7-10.1 11.9-17 13l-4.5.6v20.4c0 15.5.3 20.6 1.3 20.8.6.2 3.4 1 6.2 1.7 6.3 1.6 11.6 6.4 14.6 13.2 1.9 4.3 2.3 7.4 2.7 18.2.4 13-.4 22-4.9 53-2.6 18.8-3.6 44.1-1.9 53.1 3.4 18.3 10 33.2 19.4 43.2 7 7.5 11.6 10.8 22.3 16.1 15 7.4 27.6 10 51.6 10.8l16.9.6-.4-19.1c-.3-18.5-.4-19.1-2.7-21.6-2.6-2.7-11.6-6.6-15.5-6.6-9.8 0-20.8-8.1-24.2-18.1-2.9-8.3-2.6-41 .6-66.4 2.8-22.7 3.4-51.9 1.1-60C101 373.7 90.8 361.2 77 354l-8.2-4.2 7.9-3.9c14.7-7.1 25.3-21 28.9-38 1.9-8.7 1.4-29.7-1.1-52.4-.8-7.7-2-18.1-2.5-23-.5-5-1-15.8-1-24.1 0-18 1.7-25.4 7.6-32.2 4.5-5.3 9.4-7.8 17.6-9.2 12.5-2 17-4.6 18.8-10.9.5-2 1-10.9 1-19.9V120l-13.7.2c-7.6 0-15.4.3-17.3.5zM554 137.1c0 14.6.3 18 1.8 20.9 2.3 4.6 7.8 7.6 16.6 8.8 3.9.6 9.5 2.3 12.6 3.9 5 2.6 5.8 3.5 9.5 10.7l4 7.9.3 15.6c.4 14.8-.2 23-4.8 65.6-1.3 12.2-1.2 31.2.1 37.7 1.4 6.7 6.7 18.2 10.6 23 4.6 5.6 12 11.5 19 15 3.5 1.7 6 3.4 5.7 3.9-.2.5-3.6 2.5-7.3 4.4-13.8 7.2-25.4 22.9-28.2 38-1.4 7.2-.5 34.6 1.6 51.5 4.6 37.6 4.3 66.5-.9 75.4-5 8.6-10.2 11.4-26.5 14.7-7.5 1.5-11.6 4.5-13.1 9.7-.5 2-1 11.1-1 20.1v16.4l17.3-.6c26.9-1 44.6-5.6 59.9-15.6 22.1-14.4 33.8-39.5 33.8-72.3 0-12.4-.7-19-5.6-54.8-3-22.7-3-42.7 0-51.1 2.4-6.7 7.8-11.6 14.5-13.5 3.1-.8 6.2-1.7 6.9-1.9.9-.3 1.2-5.4 1.2-21 0-19.7-.1-20.5-2-20.5-4.5 0-13-4.2-16.4-8.1-7.8-9.2-8.5-28-2.6-69.9 6.6-46.5 5-68-6.6-90-7.3-13.9-22.1-26.6-38.2-32.8-12.8-5-25.6-7.2-44.9-7.9l-17.3-.6v17.4zM233 303.7c0 89.9-.4 98.3-4.6 108.7-6.6 16.4-17.7 21.8-41 20-6-.4-12-.7-13.4-.5-3.5.3-6.9 2.8-8 5.5-.9 2.4-4.2 32.8-3.6 33.3.2.2 3.4 1.1 7.2 1.9 4.4 1 13.9 1.8 26.4 2.1 18.4.4 20 .3 29.2-2.1 33.6-8.6 52.5-31.3 58.2-69.8 1.4-8.9 1.6-23.7 1.6-96.5v-86l-3.7-.7c-2.1-.3-13.8-.6-26-.6H233v84.7zM336 346v127.3l58.3-.6c43.6-.5 60.1-1 65.7-2.1 33.8-6.3 57.8-26.4 65.1-54.3 2.6-9.8 2.8-26.1.4-34.7-4.6-17.1-17.2-29.1-38.8-36.8l-8.8-3.1 9.3-4.5c16.6-8 30-23.9 32.8-39.1 2.6-13.8.4-28.9-6.1-42.1-5-10.1-10.4-15.7-21.5-22.1-21.6-12.6-29-13.6-100.6-14.5l-55.8-.6V346zm112.5-84.1c9.7 3.4 16.2 9.8 18.7 18.5.7 2.3 1.2 8.2 1.2 13.3 0 8.5-.2 9.6-3.4 15.9-4.2 8.1-9.7 12.3-20.4 15.6-6.4 2-9.3 2.2-30.8 2.3-13 0-23.9-.3-24.3-.7-1-1-1.9-51.3-1-60.2l.7-7.9 26.6.5c23.8.5 27.3.8 32.7 2.7zm-9 102.1c14 .9 18.7 2.3 26.1 7.8 2.7 2 5.2 5.1 7 8.9 2.6 5.3 2.9 6.7 2.9 16.3-.1 12.7-2.2 18.7-9.2 25.1-9.8 9-21.6 11.2-56.8 10.7l-19.9-.3-.9-4c-1.4-6.1 0-63.7 1.6-64.7s33.1-.9 49.2.2z"/></svg>