<?xml version="1.0" standalone="no"?>
<!DOCTYPE svg PUBLIC "-//W3C//DTD SVG 20010904//EN"
 "http://www.w3.org/TR/2001/REC-SVG-20010904/DTD/svg10.dtd">
<svg version="1.0" xmlns="http://www.w3.org/2000/svg"
 width="700.000000pt" height="700.000000pt" viewBox="0 0 700.000000 700.000000"
 preserveAspectRatio="xMidYMid meet">
<metadata>
Created by potrace 1.11, written by Peter Selinger 2001-2013
</metadata>
<g transform="translate(0.000000,700.000000) scale(0.100000,-0.100000)"
fill="#000000" stroke="none">
<path d="M1247 5804 c-1 -1 -40 -5 -87 -9 -47 -4 -88 -9 -92 -11 -4 -3 -26 -7
-50 -10 -48 -7 -174 -47 -228 -72 -226 -105 -375 -302 -425 -562 -18 -93 -23
-289 -10 -399 7 -66 44 -342 49 -366 2 -11 7 -47 10 -80 4 -33 9 -73 11 -90
11 -80 5 -254 -10 -310 -29 -111 -109 -175 -230 -184 -7 -1 -11 -74 -11 -211
0 -182 2 -210 16 -211 167 -9 243 -119 241 -353 0 -61 -3 -122 -5 -136 -2 -14
-7 -52 -11 -85 -8 -73 -14 -122 -20 -155 -3 -14 -7 -47 -10 -75 -4 -27 -10
-77 -15 -110 -23 -154 -31 -360 -17 -445 44 -258 131 -424 289 -543 79 -61
236 -133 328 -151 103 -20 133 -25 190 -31 36 -4 118 -8 183 -9 111 -2 117 -1
118 19 0 11 1 92 1 181 1 160 -4 188 -38 222 -24 23 -98 50 -154 55 -79 7
-135 33 -178 83 -64 72 -76 123 -78 319 -1 94 2 199 6 235 4 36 11 99 15 140
3 41 8 84 11 95 2 11 6 45 8 75 2 30 7 87 11 125 11 111 12 207 4 281 -21 196
-131 354 -306 441 l-75 37 37 13 c116 40 233 147 289 266 64 135 74 266 42
572 -2 17 -7 64 -10 105 -4 41 -9 82 -11 90 -2 8 -7 51 -10 95 -3 44 -8 94
-10 110 -8 64 -6 292 4 335 32 145 112 224 238 236 61 5 140 30 159 48 42 43
45 60 46 238 0 95 0 178 -1 183 -1 8 -206 16 -214 9z"/>
<path d="M5539 5785 c-1 -11 -1 -93 -1 -182 0 -139 3 -166 18 -193 24 -41 95
-76 158 -79 61 -3 141 -33 179 -66 35 -31 73 -107 88 -176 11 -50 7 -373 -5
-439 -2 -14 -7 -54 -10 -90 -3 -36 -8 -85 -11 -110 -22 -178 -30 -286 -28
-392 0 -53 6 -121 13 -150 17 -73 71 -185 116 -236 59 -69 170 -143 244 -164
8 -3 -20 -21 -62 -41 -166 -80 -285 -244 -306 -422 -10 -86 -5 -256 13 -415
36 -311 43 -412 41 -565 -2 -193 -13 -236 -78 -310 -42 -48 -99 -75 -173 -82
-53 -4 -133 -30 -151 -47 -41 -42 -45 -62 -45 -213 -1 -81 0 -164 0 -184 l1
-36 145 4 c304 6 532 73 688 202 64 53 141 145 176 211 35 65 76 187 85 250 3
25 9 56 12 70 7 31 7 284 0 325 -5 30 -13 96 -21 170 -3 22 -7 51 -10 65 -3
14 -7 45 -10 70 -3 25 -7 54 -9 65 -2 11 -7 52 -11 90 -4 39 -9 79 -11 90 -2
11 -5 70 -5 130 -3 235 68 341 236 353 20 2 21 8 21 212 0 116 -3 210 -6 211
-3 0 -19 2 -36 4 -38 4 -102 31 -127 53 -104 92 -114 273 -42 742 4 28 22 161
30 230 7 51 8 307 2 330 -2 8 -8 38 -12 65 -5 28 -9 52 -10 55 -18 88 -80 223
-134 290 -177 221 -430 319 -838 324 -107 2 -113 1 -114 -19z"/>
<path d="M2329 3973 c-1 -883 -1 -887 -14 -973 -11 -68 -8 -58 -25 -105 -57
-167 -158 -229 -365 -221 -55 3 -117 7 -137 11 -47 8 -98 -8 -120 -39 -9 -13
-20 -50 -23 -82 -3 -33 -7 -79 -10 -104 -2 -25 -7 -73 -10 -107 l-6 -62 38
-10 c21 -6 56 -13 78 -16 22 -3 63 -8 90 -12 62 -9 286 -9 340 -1 180 29 311
89 425 194 153 142 236 344 259 629 4 60 6 1652 2 1723 -1 9 -60 12 -261 12
l-260 0 -1 -837z"/>
<path d="M3361 3541 l0 -1271 552 1 c496 1 625 5 707 24 14 3 34 8 46 10 11 3
47 13 80 24 333 106 534 370 532 699 -1 265 -142 439 -431 533 -37 12 -66 23
-65 25 2 1 28 12 58 24 178 70 323 229 360 395 13 56 15 180 5 243 -17 116
-78 247 -148 320 -75 78 -267 178 -380 197 -17 3 -39 8 -48 11 -9 2 -34 7 -55
10 -22 3 -50 8 -64 11 -14 3 -278 7 -587 10 l-562 4 0 -1270z m1104 845 c147
-42 213 -130 220 -292 9 -209 -90 -327 -305 -360 -78 -12 -490 -12 -491 0 -3
36 -4 663 -1 669 2 5 120 7 261 4 201 -3 269 -7 316 -21z m23 -1034 c17 -6 32
-9 32 -7 0 12 89 -30 131 -60 69 -52 102 -123 105 -230 5 -130 -24 -214 -95
-278 -98 -88 -168 -103 -508 -105 -145 -1 -263 2 -264 6 -6 43 -3 661 3 674 8
16 32 17 286 14 152 -2 292 -9 310 -14z"/>
</g>
</svg>
